# xmcd CD database file
#
# Track frame offsets:
#	150
#	16930
#	34208
#	50145
#	62023
#	75133
#	94756
#	108391
#	122769
#	132643
#	143246
#	159644
#	171146
#	184311
#	195113
#	209630
#	225215
#	237949
#	252727
#	264513
#	282637
#	296398
#	309381
#	326821
#	337782
#
# Disc length: 4708 seconds
#
# Revision: 1
# Processed by: cddbd v1.5.1PL0 Copyright (c) Steve Scherf et al.
# Submitted via: CDex 1.50beta9
#
DISCID=6c126219
DTITLE=Johnny Cash - Unearthed - disc 2 (1-14) - disc 3 (15-25)
DYEAR=1900
DGENRE=Country
TTITLE0=Johnny Cash - Pocohontas
TTITLE1=Johnny Cash - I'm a Drifter (version 1)
TTITLE2=Johnny Cash - Trouble In Mind
TTITLE3=Johnny Cash - Down The Line
TTITLE4=Johnny Cash - I'm Movin' On
TTITLE5=Johnny Cash - As Long as the Grass Shall Grow
TTITLE6=Johnny Cash - Heart of Gold
TTITLE7=Johnny Cash - The Running Kind (with Tom Petty)
TTITLE8=Johnny Cash - Everybody's Trying To Be My Ba
TTITLE9=Johnny Cash - Brown-Eyed Handsome Man
TTITLE10=Johnny Cash - 'T' For Texas (Blue Yodel #1)
TTITLE11=Johnny Cash - Devil's Right Hand
TTITLE12=Johnny Cash - Like a Solder (with Willie Nelson)
TTITLE13=Johnny Cash - Drive On (alternate lyrics)
TTITLE14=Johnny Cash - The L and N Don't Stop Here Anymore
TTITLE15=Johnny Cash - Redemption Song (with Joe Strummer)
TTITLE16=Johnny Cash - Father and Son (with Fiona Apple)
TTITLE17=Johnny Cash - Chattanooga Sugar Babe
TTITLE18=Johnny Cash - He Stopped Loving Her Today
TTITLE19=Johnny Cash - Hard Times
TTITLE20=Johnny Cash - Wichita Lineman
TTITLE21=Johnny Cash - Cindy (with Nick Cave)
TTITLE22=Johnny Cash - Big Iron
TTITLE23=Johnny Cash - Salty Dog
TTITLE24=Johnny Cash - Gentle on My Mind (w Glen Campbell)
EXTD=
EXTT0=
EXTT1=
EXTT2=
EXTT3=
EXTT4=
EXTT5=
EXTT6=
EXTT7=
EXTT8=
EXTT9=
EXTT10=
EXTT11=
EXTT12=
EXTT13=
EXTT14=
EXTT15=
EXTT16=
EXTT17=
EXTT18=
EXTT19=
EXTT20=
EXTT21=
EXTT22=
EXTT23=
EXTT24=
PLAYORDER=
